<svg width="163" height="61" viewBox="0 0 163 61" fill="none" xmlns="http://www.w3.org/2000/svg">
<path d="M0.304001 48L6.96 14.976H11.888L10.48 21.568H10.8C11.2267 20.7573 11.7387 19.968 12.336 19.2C12.9333 18.3893 13.616 17.6853 14.384 17.088C15.1947 16.448 16.112 15.936 17.136 15.552C18.16 15.168 19.3547 14.976 20.72 14.976H22.768L21.808 20.032H19.504C17.968 20.032 16.6027 20.2667 15.408 20.736C14.256 21.1627 13.2533 21.76 12.4 22.528C11.5467 23.296 10.8427 24.192 10.288 25.216C9.776 26.1973 9.41333 27.2427 9.2 28.352L5.232 48H0.304001Z" fill="#1467FF"/>
<path d="M48.6555 48C47.2048 48 46.1168 47.6373 45.3915 46.912C44.7088 46.1867 44.3675 45.2267 44.3675 44.032C44.3675 43.52 44.4315 42.944 44.5595 42.304L44.8795 40.832H44.6875C43.3222 43.6053 41.8075 45.632 40.1435 46.912C38.4795 48.1493 36.4315 48.768 33.9995 48.768C30.9702 48.768 28.5382 47.6587 26.7035 45.44C24.8688 43.1787 23.9515 40.0853 23.9515 36.16C23.9515 33.728 24.2715 31.232 24.9115 28.672C25.5942 26.0693 26.5968 23.7013 27.9195 21.568C29.2422 19.392 30.9062 17.6213 32.9115 16.256C34.9595 14.8907 37.3488 14.208 40.0795 14.208C41.0608 14.208 42.0208 14.336 42.9595 14.592C43.8982 14.848 44.7515 15.232 45.5195 15.744C46.2875 16.256 46.9488 16.896 47.5035 17.664C48.0582 18.432 48.4635 19.328 48.7195 20.352H48.9755L50.0635 14.976H54.9915L49.2315 43.648H53.9035L53.0715 48H48.6555ZM35.3435 44.288C36.7942 44.288 38.0528 43.9893 39.1195 43.392C40.2288 42.7947 41.2742 42.0053 42.2555 41.024C43.3222 39.9573 44.1968 38.784 44.8795 37.504C45.5622 36.224 46.0742 34.752 46.4155 33.088L47.7595 26.368C47.9728 25.344 47.9942 24.384 47.8235 23.488C47.6528 22.5493 47.2688 21.7387 46.6715 21.056C46.0742 20.3307 45.2635 19.7547 44.2395 19.328C43.2155 18.9013 41.9782 18.688 40.5275 18.688C37.8395 18.688 35.6208 19.5627 33.8715 21.312C32.1222 23.0613 30.9275 25.536 30.2875 28.736L29.3275 33.536C29.1142 34.7307 29.0075 35.8187 29.0075 36.8C29.0075 38.976 29.4982 40.768 30.4795 42.176C31.5035 43.584 33.1248 44.288 35.3435 44.288Z" fill="#1467FF"/>
<path d="M66.96 14.976H71.888L70.416 22.144H70.608C71.9733 19.3707 73.488 17.3653 75.152 16.128C76.816 14.848 78.864 14.208 81.296 14.208C84.3253 14.208 86.7573 15.3387 88.592 17.6C90.4267 19.8187 91.344 22.8907 91.344 26.816C91.344 29.248 91.0027 31.7653 90.32 34.368C89.68 36.928 88.6987 39.296 87.376 41.472C86.0533 43.6053 84.368 45.3547 82.32 46.72C80.3147 48.0853 77.9467 48.768 75.216 48.768C74.2347 48.768 73.2747 48.64 72.336 48.384C71.3973 48.128 70.544 47.744 69.776 47.232C69.008 46.72 68.3467 46.08 67.792 45.312C67.2373 44.544 66.832 43.648 66.576 42.624H66.32L62.672 60.8H57.744L66.96 14.976ZM74.768 44.288C77.456 44.288 79.6747 43.4134 81.424 41.664C83.1733 39.9147 84.368 37.44 85.008 34.24L85.968 29.44C86.1813 28.2453 86.288 27.1573 86.288 26.176C86.288 24 85.776 22.208 84.752 20.8C83.7707 19.392 82.1707 18.688 79.952 18.688C78.5013 18.688 77.2213 18.9867 76.112 19.584C75.0453 20.1813 74.0213 20.9707 73.04 21.952C71.9733 23.0187 71.0987 24.192 70.416 25.472C69.7333 26.752 69.2213 28.224 68.88 29.888L67.536 36.608C67.3227 37.632 67.3013 38.6133 67.472 39.552C67.6427 40.4907 68.0267 41.3227 68.624 42.048C69.2213 42.7307 70.0107 43.2853 70.992 43.712C72.016 44.096 73.2747 44.288 74.768 44.288Z" fill="#1467FF"/>
<path d="M107.809 7.23201C106.828 7.23201 106.124 7.01868 105.697 6.59201C105.313 6.12268 105.121 5.58935 105.121 4.99201C105.121 4.86401 105.121 4.69335 105.121 4.48001C105.164 4.22401 105.249 3.79735 105.377 3.20001C105.548 2.38935 105.889 1.77068 106.401 1.34401C106.956 0.874681 107.766 0.640015 108.833 0.640015C109.814 0.640015 110.497 0.874681 110.881 1.34401C111.308 1.77068 111.521 2.28268 111.521 2.88001C111.521 3.00801 111.5 3.20001 111.457 3.45601C111.457 3.66935 111.393 4.07468 111.265 4.67201C111.094 5.48268 110.732 6.12268 110.177 6.59201C109.665 7.01868 108.876 7.23201 107.809 7.23201ZM102.369 48C100.876 48 99.745 47.6373 98.977 46.912C98.2517 46.144 97.889 45.1627 97.889 43.968C97.889 43.584 97.953 43.072 98.081 42.432L103.585 14.976H108.513L102.753 43.648H107.425L106.593 48H102.369Z" fill="#1467FF"/>
<path d="M139.468 48C138.017 48 136.929 47.6373 136.204 46.912C135.521 46.1867 135.18 45.2267 135.18 44.032C135.18 43.52 135.244 42.944 135.372 42.304L135.692 40.832H135.5C134.135 43.6053 132.62 45.632 130.956 46.912C129.292 48.1493 127.244 48.768 124.812 48.768C121.783 48.768 119.351 47.6587 117.516 45.44C115.681 43.1787 114.764 40.0853 114.764 36.16C114.764 33.728 115.084 31.232 115.724 28.672C116.407 26.0693 117.409 23.7013 118.732 21.568C120.055 19.392 121.719 17.6213 123.724 16.256C125.772 14.8907 128.161 14.208 130.892 14.208C131.873 14.208 132.833 14.336 133.772 14.592C134.711 14.848 135.564 15.232 136.332 15.744C137.1 16.256 137.761 16.896 138.316 17.664C138.871 18.432 139.276 19.328 139.532 20.352H139.788L143.756 0.640015H148.684L140.044 43.648L162.658 42.432L161.5 48H139.468ZM126.156 44.288C127.607 44.288 128.865 43.9893 129.932 43.392C131.041 42.7947 132.087 42.0053 133.068 41.024C134.135 39.9573 135.009 38.784 135.692 37.504C136.375 36.224 136.887 34.752 137.228 33.088L138.572 26.368C138.785 25.344 138.807 24.384 138.636 23.488C138.465 22.5493 138.081 21.7387 137.484 21.056C136.887 20.3307 136.076 19.7547 135.052 19.328C134.028 18.9013 132.791 18.688 131.34 18.688C128.652 18.688 126.433 19.5627 124.684 21.312C122.935 23.0613 121.74 25.536 121.1 28.736L120.14 33.536C119.927 34.7307 119.82 35.8187 119.82 36.8C119.82 38.976 120.311 40.768 121.292 42.176C122.316 43.584 123.937 44.288 126.156 44.288Z" fill="#1467FF"/>
</svg>
