<svg width="100" height="100" viewBox="0 0 100 100" fill="none" xmlns="http://www.w3.org/2000/svg">
<path d="M52.4829 96.4681C49.5772 96.4681 47.3979 95.7447 45.945 94.2979C44.5776 92.8511 43.8939 90.9362 43.8939 88.5532C43.8939 87.5319 44.0221 86.383 44.2785 85.1064L44.9194 82.1702H44.5349C41.8001 87.7021 38.7661 91.7447 35.4331 94.2979C32.1 96.766 27.9978 98 23.1265 98C17.0586 98 12.1872 95.7872 8.51234 91.3617C4.83745 86.8511 3 80.6809 3 72.8511C3 68 3.64097 63.0213 4.92291 57.9149C6.29031 52.7234 8.29869 48 10.948 43.7447C13.5974 39.4043 16.9304 35.8723 20.9472 33.1489C25.0494 30.4255 29.8353 29.0638 35.3049 29.0638C37.2705 29.0638 39.1934 29.3192 41.0736 29.8298C42.9538 30.3404 44.6631 31.1064 46.2014 32.1277C47.7397 33.1489 49.0644 34.4255 50.1754 35.9574C51.2864 37.4894 52.0983 39.2766 52.6111 41.3191H53.1239L61.0719 2H70.9428L50.0472 91.3617L98 85.1064L95.6121 96.4681H52.4829ZM25.8185 89.0638C28.7243 89.0638 31.2454 88.4681 33.382 87.2766C35.604 86.0851 37.6978 84.5106 39.6635 82.5532C41.8001 80.4255 43.552 78.0851 44.9194 75.5319C46.2868 72.9787 47.3124 70.0426 47.9961 66.7234L50.6882 53.3191C51.1155 51.2766 51.1582 49.3617 50.8164 47.5745C50.4745 45.7021 49.7053 44.0851 48.5089 42.7234C47.3124 41.2766 45.6886 40.1277 43.6375 39.2766C41.5864 38.4255 39.108 38 36.2022 38C30.8181 38 26.374 39.7447 22.8701 43.234C19.3661 46.7234 16.9731 51.6596 15.6912 58.0426L13.7683 67.617C13.341 70 13.1273 72.1702 13.1273 74.1277C13.1273 78.4681 14.1101 82.0426 16.0758 84.8511C18.1269 87.6596 21.3745 89.0638 25.8185 89.0638Z" fill="#1467FF"/>
</svg>
